<svg width="24" height="24" viewBox="0 0 24 24" fill="none" xmlns="http://www.w3.org/2000/svg">
<path d="M11.7842 1.08008C18.2909 1.08013 23.5635 5.38541 23.5635 10.6992C23.5635 16.013 18.2909 20.3183 11.7842 20.3184C11.0745 20.3167 10.3657 20.2627 9.66309 20.1572L4.89062 23.4912C4.82697 23.5476 4.74513 23.5763 4.66211 23.5723C4.57902 23.5681 4.49979 23.5313 4.44141 23.4688C4.3962 23.4224 4.36374 23.3634 4.34863 23.2988C4.33356 23.2341 4.33672 23.1658 4.35645 23.1025L5.46582 18.8193C2.18442 17.1088 0 14.1131 0 10.6992C9.4301e-06 5.55156 4.94814 1.35051 11.1729 1.09277L11.7842 1.08008ZM3.52148 7.94238C3.38334 7.94238 3.25003 7.99704 3.15234 8.09473C3.05482 8.1923 3.00011 8.32494 3 8.46289C3.00007 8.60082 3.05489 8.73346 3.15234 8.83105C3.25003 8.92874 3.38334 8.9834 3.52148 8.9834H4.80078V13.1074C4.80094 13.2453 4.85567 13.3781 4.95312 13.4756C5.05079 13.5732 5.18419 13.6279 5.32227 13.6279C5.46015 13.6278 5.59286 13.573 5.69043 13.4756C5.78788 13.3781 5.84261 13.2453 5.84277 13.1074V8.9834H7.10059C7.16906 8.98369 7.23746 8.97138 7.30078 8.94531C7.36403 8.91925 7.42135 8.88039 7.46973 8.83203C7.51806 8.78369 7.55694 8.72628 7.58301 8.66309C7.60901 8.59987 7.62233 8.53124 7.62207 8.46289C7.6223 8.39474 7.60888 8.32672 7.58301 8.26367C7.55707 8.20065 7.51879 8.14302 7.4707 8.09473C7.42239 8.04632 7.36398 8.00758 7.30078 7.98145C7.23771 7.95543 7.1698 7.94224 7.10156 7.94238H3.52148ZM16.4814 7.91992C16.3437 7.9201 16.2117 7.97501 16.1143 8.07227C16.0166 8.16995 15.9609 8.30326 15.9609 8.44141V11.2627C15.9426 11.3433 15.9426 11.4273 15.9609 11.5078V13.0957C15.9609 13.2338 16.0166 13.3662 16.1143 13.4639C16.2118 13.5613 16.3436 13.617 16.4814 13.6172C16.6195 13.6172 16.7529 13.5615 16.8506 13.4639C16.9481 13.3662 17.0029 13.2337 17.0029 13.0957V11.5918L17.4746 11.1357L19.0498 13.3789C19.0891 13.4349 19.1395 13.4828 19.1973 13.5195C19.255 13.5562 19.3194 13.581 19.3867 13.5928C19.4541 13.6045 19.5231 13.6028 19.5898 13.5879C19.6566 13.573 19.7204 13.5461 19.7764 13.5068C19.8322 13.4676 19.8794 13.417 19.916 13.3594C19.9526 13.3017 19.9784 13.2372 19.9902 13.1699C20.002 13.1027 20.0001 13.0334 19.9854 12.9668C19.9705 12.9001 19.9425 12.8362 19.9033 12.7803L18.2324 10.4033L19.8545 8.83203C19.9481 8.73483 20.0002 8.60466 20 8.46973C19.9998 8.33486 19.9473 8.20536 19.8535 8.1084C19.7597 8.0115 19.6319 7.95483 19.4971 7.9502C19.3624 7.94563 19.231 7.99289 19.1309 8.08301L17.0029 10.1426V8.44141C17.0029 8.30326 16.9483 8.16995 16.8506 8.07227C16.7529 7.97466 16.6195 7.91992 16.4814 7.91992ZM9.30469 7.87598C9.149 7.87593 8.99667 7.92287 8.86816 8.01074C8.73963 8.09873 8.64033 8.22392 8.58398 8.36914L6.75 12.8662C6.69779 12.994 6.69857 13.1373 6.75195 13.2646C6.80544 13.392 6.90734 13.4936 7.03516 13.5459C7.16286 13.598 7.3064 13.5973 7.43359 13.5439C7.56098 13.4904 7.66162 13.3877 7.71387 13.2598L8.08105 12.3633H10.3652L10.6943 13.2461C10.7168 13.3119 10.7516 13.3729 10.7979 13.4248C10.8442 13.4768 10.901 13.519 10.9639 13.5488C11.0267 13.5786 11.0956 13.5956 11.165 13.5986C11.2344 13.6015 11.3041 13.5907 11.3691 13.5664C11.4343 13.5421 11.4943 13.5048 11.5449 13.457C11.5955 13.4092 11.6361 13.3509 11.6641 13.2871C11.6919 13.2234 11.7071 13.1545 11.708 13.085C11.7089 13.0154 11.6961 12.9463 11.6699 12.8818L11.2939 11.874L9.99609 8.39941C9.94772 8.2522 9.85602 8.12276 9.73242 8.0293C9.60885 7.93589 9.45945 7.88242 9.30469 7.87598ZM12.8369 7.96094C12.7029 7.96094 12.5735 8.01293 12.4766 8.10547C12.38 8.19785 12.3227 8.32357 12.3164 8.45703V13.0469C12.3164 13.3337 12.548 13.5683 12.8359 13.5684H14.9688C15.1066 13.5682 15.2384 13.5125 15.3359 13.415C15.4335 13.3174 15.4892 13.185 15.4893 13.0469C15.4892 12.9089 15.4335 12.7763 15.3359 12.6787C15.2385 12.5814 15.1065 12.5266 14.9688 12.5264H13.3564V8.45703C13.3502 8.32355 13.2928 8.19785 13.1963 8.10547C13.0995 8.01305 12.9707 7.96104 12.8369 7.96094ZM9.97656 11.3213L8.50488 11.3223L9.27246 9.4375L9.97656 11.3213Z" fill="#3E2723"/>
</svg>
