<svg width="24" height="24" viewBox="0 0 24 24" fill="none" xmlns="http://www.w3.org/2000/svg">
<path d="M10 8.484C10 7.5 11 7 12 7C13.246 7 14 7.989 14 8.978C14 9.967 13.5 10.461 12 11.451V13M12 16.5V16.75" stroke="#484B4E" stroke-width="2" stroke-linecap="round"/>
<path d="M12.0015 22C14.2203 21.9997 16.3759 21.2614 18.1291 19.9015C19.8823 18.5416 21.1334 16.6372 21.6855 14.4882C22.2376 12.3392 22.0593 10.0676 21.1786 8.03105C20.298 5.9945 18.7651 4.30867 16.8212 3.23895C14.8773 2.16923 12.6328 1.77639 10.4412 2.12226C8.24949 2.46814 6.23509 3.53309 4.7151 5.14946C3.1951 6.76583 2.25584 8.84181 2.04518 11.0506C1.83453 13.2593 2.36444 15.4754 3.55149 17.35L2.00149 22L6.65149 20.45C8.25102 21.4652 10.107 22.0029 12.0015 22Z" stroke="#484B4E" stroke-width="2" stroke-linecap="round" stroke-linejoin="round"/>
</svg>
