<svg width="24" height="24" viewBox="0 0 24 24" fill="none" xmlns="http://www.w3.org/2000/svg">
<path d="M18.6662 7.09679C19.5502 7.09679 20.3979 7.4466 21.0229 8.06926C21.648 8.69193 21.9991 9.53645 21.9991 10.417C21.9991 11.2976 21.648 12.1421 21.0229 12.7648C20.3979 13.3875 19.5502 13.7373 18.6662 13.7373M9.7786 6.46875L9.7786 20.001H6.16797L6.16797 14.6508" stroke="#484B4E" stroke-width="2" stroke-linecap="round" stroke-linejoin="round"/>
<path d="M17.2261 2.70112L9.49882 6.46819H3C2.44772 6.46819 2 6.91591 2 7.46819V13.19C2 13.7423 2.44772 14.19 3 14.19H9.49882L17.2546 17.6735C17.9163 17.9707 18.6643 17.4866 18.6643 16.7613V3.6C18.6643 2.861 17.8904 2.37729 17.2261 2.70112Z" stroke="#484B4E" stroke-width="2" stroke-linecap="round" stroke-linejoin="round"/>
</svg>
