<svg width="20" height="20" viewBox="0 0 20 20" fill="none" xmlns="http://www.w3.org/2000/svg">
<path d="M9.98242 1.66602C14.8038 1.6662 18.7109 4.85649 18.7109 8.79395C18.7109 12.7313 14.8037 15.9217 9.98242 15.9219C9.4565 15.9207 8.93083 15.8809 8.41016 15.8027L4.87402 18.2725C4.82677 18.3143 4.76573 18.3361 4.7041 18.333C4.64254 18.3299 4.58425 18.3022 4.54102 18.2559C4.50748 18.2215 4.48384 18.1778 4.47266 18.1299C4.46148 18.082 4.46292 18.0313 4.47754 17.9844L5.2998 14.8115C2.86833 13.544 1.25005 11.3236 1.25 8.79395C1.25 4.97945 4.91666 1.8657 9.5293 1.6748L9.98242 1.66602ZM3.86133 6.75098C3.75896 6.75098 3.66027 6.79187 3.58789 6.86426C3.51571 6.93655 3.47469 7.03457 3.47461 7.13672C3.47466 7.239 3.51557 7.33782 3.58789 7.41016C3.66026 7.48243 3.75905 7.52246 3.86133 7.52246H4.80957V10.5781C4.80963 10.6802 4.84982 10.7783 4.92188 10.8506C4.99423 10.9229 5.093 10.9638 5.19531 10.9639C5.29768 10.9639 5.39637 10.923 5.46875 10.8506C5.54089 10.7783 5.58197 10.6803 5.58203 10.5781V7.52246H6.51367C6.56435 7.52265 6.61524 7.51343 6.66211 7.49414C6.70889 7.47482 6.75132 7.44595 6.78711 7.41016C6.82289 7.37435 6.85179 7.33195 6.87109 7.28516C6.89036 7.23832 6.89961 7.18737 6.89941 7.13672C6.89959 7.08629 6.89022 7.03592 6.87109 6.98926C6.85185 6.9425 6.82281 6.90007 6.78711 6.86426C6.75135 6.82842 6.70888 6.79964 6.66211 6.78027C6.61542 6.76098 6.56516 6.75092 6.51465 6.75098H3.86133ZM13.4648 6.73438C13.3626 6.73447 13.2647 6.77537 13.1924 6.84766C13.12 6.92004 13.0791 7.01873 13.0791 7.12109V9.21094C13.0655 9.27054 13.0656 9.33297 13.0791 9.39258V10.5693C13.0791 10.6717 13.12 10.7704 13.1924 10.8428C13.2647 10.915 13.3627 10.956 13.4648 10.9561C13.5672 10.9561 13.6659 10.9151 13.7383 10.8428C13.8106 10.7704 13.8516 10.6717 13.8516 10.5693V9.45508L14.2002 9.11719L15.3682 10.7793C15.3972 10.8207 15.4339 10.8566 15.4766 10.8838C15.5193 10.9109 15.5674 10.9297 15.6172 10.9385C15.6671 10.9472 15.7191 10.9456 15.7686 10.9346C15.8179 10.9235 15.8649 10.9031 15.9062 10.874C15.9477 10.8449 15.9826 10.8074 16.0098 10.7646C16.0369 10.7219 16.0557 10.674 16.0645 10.624C16.0731 10.5742 16.0725 10.523 16.0615 10.4736C16.0505 10.4242 16.0291 10.3774 16 10.3359L14.7627 8.57422L15.9639 7.41016C16.0332 7.33813 16.0724 7.24159 16.0723 7.1416C16.0721 7.04168 16.0324 6.94584 15.9629 6.87402C15.8934 6.80233 15.799 6.76027 15.6992 6.75684C15.5994 6.75347 15.502 6.78861 15.4277 6.85547L13.8516 8.38184V7.12109C13.8516 7.01879 13.8106 6.92003 13.7383 6.84766C13.6659 6.77527 13.5672 6.73438 13.4648 6.73438ZM8.14648 6.70215C8.03113 6.70213 7.91846 6.73664 7.82324 6.80176C7.728 6.86696 7.65406 6.95978 7.6123 7.06738L6.25391 10.3994C6.21519 10.4942 6.21524 10.6009 6.25488 10.6953C6.29452 10.7896 6.37022 10.8646 6.46484 10.9033C6.55939 10.9419 6.66558 10.9408 6.75977 10.9014C6.85416 10.8617 6.93004 10.7862 6.96875 10.6914L7.24023 10.0264H8.93262L9.17676 10.6807C9.19335 10.7294 9.21872 10.775 9.25293 10.8135C9.28719 10.8519 9.32947 10.8831 9.37598 10.9053C9.42239 10.9273 9.4731 10.9401 9.52441 10.9424C9.57601 10.9446 9.62837 10.936 9.67676 10.918C9.72504 10.8999 9.76918 10.8723 9.80664 10.8369C9.8441 10.8015 9.87478 10.7591 9.89551 10.7119C9.91622 10.6646 9.92705 10.6131 9.92773 10.5615C9.92838 10.51 9.91882 10.4588 9.89941 10.4111L9.62109 9.66406L8.65918 7.08984C8.62334 6.98079 8.55541 6.88468 8.46387 6.81543C8.37225 6.74617 8.26124 6.70689 8.14648 6.70215ZM10.7637 6.76465C10.6645 6.7647 10.5688 6.80267 10.4971 6.87109C10.4254 6.93963 10.3825 7.03372 10.3779 7.13281V10.5342C10.3782 10.7466 10.5504 10.9199 10.7637 10.9199H12.3438C12.4459 10.9198 12.5439 10.8789 12.6162 10.8066C12.6884 10.7344 12.7294 10.6363 12.7295 10.5342C12.7295 10.4319 12.6885 10.3331 12.6162 10.2607C12.544 10.1885 12.4459 10.1476 12.3438 10.1475H11.1494V7.13281C11.1448 7.03367 11.102 6.93964 11.0303 6.87109C10.9585 6.80266 10.8628 6.76466 10.7637 6.76465ZM8.64453 9.25488L7.55371 9.25586L8.12305 7.85938L8.64453 9.25488Z" fill="#3E2723"/>
</svg>
