<svg width="17" height="15" viewBox="0 0 17 15" fill="none" xmlns="http://www.w3.org/2000/svg">
<path d="M8.25 3.25L7.61667 2.41667C6.88333 1.45 5.8 0.75 4.5 0.75C2.425 0.75 0.75 2.425 0.75 4.5C0.75 5.275 0.983333 5.99167 1.38333 6.58333C2.05833 7.59167 8.25 14.0833 8.25 14.0833M8.25 3.25L8.88333 2.41667C9.61667 1.45 10.7 0.75 12 0.75C14.075 0.75 15.75 2.425 15.75 4.5C15.75 5.275 15.5167 5.99167 15.1167 6.58333C14.4417 7.59167 8.25 14.0833 8.25 14.0833" fill="#EF354A"/>
<path d="M8.25 3.25L7.61667 2.41667C6.88333 1.45 5.8 0.75 4.5 0.75C2.425 0.75 0.75 2.425 0.75 4.5C0.75 5.275 0.983333 5.99167 1.38333 6.58333C2.05833 7.59167 8.25 14.0833 8.25 14.0833C8.25 14.0833 14.4417 7.59167 15.1167 6.58333C15.5167 5.99167 15.75 5.275 15.75 4.5C15.75 2.425 14.075 0.75 12 0.75C10.7 0.75 9.61667 1.45 8.88333 2.41667L8.25 3.25Z" stroke="#EF354A" stroke-width="1.5" stroke-linecap="round" stroke-linejoin="round"/>
</svg>
