<svg width="36" height="36" viewBox="0 0 36 36" fill="none" xmlns="http://www.w3.org/2000/svg">
<rect width="36" height="36" rx="18" fill="#484B4E"/>
<path d="M11.6 24C11.16 24 10.7835 23.8532 10.4704 23.5597C10.1573 23.2662 10.0005 22.913 10 22.5V13.5C10 13.0875 10.1568 12.7345 10.4704 12.441C10.784 12.1475 11.1605 12.0005 11.6 12H16.4L18 13.5H24.4C24.84 13.5 25.2168 13.647 25.5304 13.941C25.844 14.235 26.0005 14.588 26 15V22.5C26 22.9125 25.8435 23.2657 25.5304 23.5597C25.2173 23.8537 24.8405 24.0005 24.4 24H11.6Z" fill="white"/>
</svg>
