<svg width="24" height="23" viewBox="0 0 24 23" fill="none" xmlns="http://www.w3.org/2000/svg">
<path d="M11.7842 0C18.2909 5.43033e-05 23.5635 4.30533 23.5635 9.61914C23.5635 14.933 18.2909 19.2382 11.7842 19.2383C11.0745 19.2366 10.3657 19.1827 9.66309 19.0771L4.89062 22.4111C4.82697 22.4675 4.74513 22.4962 4.66211 22.4922C4.57902 22.488 4.49979 22.4512 4.44141 22.3887C4.3962 22.3424 4.36374 22.2833 4.34863 22.2188C4.33356 22.1541 4.33672 22.0857 4.35645 22.0225L5.46582 17.7393C2.18442 16.0287 0 13.033 0 9.61914C9.4301e-06 4.47148 4.94814 0.270434 11.1729 0.0126953L11.7842 0ZM3.52148 6.8623C3.38334 6.8623 3.25003 6.91697 3.15234 7.01465C3.05482 7.11222 3.00011 7.24487 3 7.38281C3.00007 7.52074 3.05489 7.65338 3.15234 7.75098C3.25003 7.84866 3.38334 7.90332 3.52148 7.90332H4.80078V12.0273C4.80094 12.1652 4.85567 12.298 4.95312 12.3955C5.05079 12.4931 5.18419 12.5479 5.32227 12.5479C5.46015 12.5477 5.59286 12.4929 5.69043 12.3955C5.78788 12.298 5.84261 12.1652 5.84277 12.0273V7.90332H7.10059C7.16906 7.90361 7.23746 7.8913 7.30078 7.86523C7.36403 7.83917 7.42135 7.80031 7.46973 7.75195C7.51806 7.70361 7.55694 7.6462 7.58301 7.58301C7.60901 7.51979 7.62233 7.45116 7.62207 7.38281C7.6223 7.31466 7.60888 7.24664 7.58301 7.18359C7.55707 7.12057 7.51879 7.06294 7.4707 7.01465C7.42239 6.96624 7.36398 6.92751 7.30078 6.90137C7.23771 6.87535 7.1698 6.86216 7.10156 6.8623H3.52148ZM16.4814 6.83984C16.3437 6.84002 16.2117 6.89493 16.1143 6.99219C16.0166 7.08987 15.9609 7.22318 15.9609 7.36133V10.1826C15.9426 10.2632 15.9426 10.3472 15.9609 10.4277V12.0156C15.9609 12.1538 16.0166 12.2861 16.1143 12.3838C16.2118 12.4812 16.3436 12.5369 16.4814 12.5371C16.6195 12.5371 16.7529 12.4814 16.8506 12.3838C16.9481 12.2861 17.0029 12.1536 17.0029 12.0156V10.5117L17.4746 10.0557L19.0498 12.2988C19.0891 12.3548 19.1395 12.4028 19.1973 12.4395C19.255 12.4761 19.3194 12.5009 19.3867 12.5127C19.4541 12.5245 19.5231 12.5227 19.5898 12.5078C19.6566 12.4929 19.7204 12.466 19.7764 12.4268C19.8322 12.3875 19.8794 12.3369 19.916 12.2793C19.9526 12.2216 19.9784 12.1571 19.9902 12.0898C20.002 12.0226 20.0001 11.9533 19.9854 11.8867C19.9705 11.82 19.9425 11.7561 19.9033 11.7002L18.2324 9.32324L19.8545 7.75195C19.9481 7.65475 20.0002 7.52459 20 7.38965C19.9998 7.25478 19.9473 7.12528 19.8535 7.02832C19.7597 6.93142 19.6319 6.87475 19.4971 6.87012C19.3624 6.86556 19.231 6.91282 19.1309 7.00293L17.0029 9.0625V7.36133C17.0029 7.22318 16.9483 7.08987 16.8506 6.99219C16.7529 6.89458 16.6195 6.83984 16.4814 6.83984ZM9.30469 6.7959C9.149 6.79585 8.99667 6.84279 8.86816 6.93066C8.73963 7.01865 8.64033 7.14385 8.58398 7.28906L6.75 11.7861C6.69779 11.9139 6.69857 12.0573 6.75195 12.1846C6.80544 12.3119 6.90734 12.4136 7.03516 12.4658C7.16286 12.5179 7.3064 12.5172 7.43359 12.4639C7.56098 12.4104 7.66162 12.3076 7.71387 12.1797L8.08105 11.2832H10.3652L10.6943 12.166C10.7168 12.2318 10.7516 12.2928 10.7979 12.3447C10.8442 12.3967 10.901 12.4389 10.9639 12.4688C11.0267 12.4985 11.0956 12.5155 11.165 12.5186C11.2344 12.5215 11.3041 12.5106 11.3691 12.4863C11.4343 12.462 11.4943 12.4247 11.5449 12.377C11.5955 12.3291 11.6361 12.2708 11.6641 12.207C11.6919 12.1433 11.7071 12.0744 11.708 12.0049C11.7089 11.9353 11.6961 11.8662 11.6699 11.8018L11.2939 10.7939L9.99609 7.31934C9.94772 7.17212 9.85602 7.04268 9.73242 6.94922C9.60885 6.85582 9.45945 6.80234 9.30469 6.7959ZM12.8369 6.88086C12.7029 6.88086 12.5735 6.93285 12.4766 7.02539C12.38 7.11777 12.3227 7.2435 12.3164 7.37695V11.9668C12.3164 12.2537 12.548 12.4882 12.8359 12.4883H14.9688C15.1066 12.4881 15.2384 12.4324 15.3359 12.335C15.4335 12.2373 15.4892 12.1049 15.4893 11.9668C15.4892 11.8288 15.4335 11.6962 15.3359 11.5986C15.2385 11.5013 15.1065 11.4465 14.9688 11.4463H13.3564V7.37695C13.3502 7.24348 13.2928 7.11778 13.1963 7.02539C13.0995 6.93297 12.9707 6.88096 12.8369 6.88086ZM9.97656 10.2412L8.50488 10.2422L9.27246 8.35742L9.97656 10.2412Z" fill="#3E2723"/>
</svg>
