<svg width="24" height="20" viewBox="0 0 24 20" fill="none" xmlns="http://www.w3.org/2000/svg">
<path d="M3.20613 20H20.7943C22.9176 20 24 18.9091 24 16.7487V5.7683C24 3.60793 22.9176 2.52774 20.7943 2.52774H18.4057C17.6095 2.52774 17.3647 2.35994 16.9052 1.83551L16.0781 0.891355C15.5781 0.315017 15.0576 0 13.9957 0H9.93285C8.88142 0 8.3605 0.315017 7.85046 0.891355L7.02334 1.83551C6.57428 2.3492 6.31905 2.52774 5.52285 2.52774H3.20569C1.08236 2.52774 0 3.60793 0 5.7683V16.7487C0 18.9091 1.08279 20 3.20613 20ZM11.9952 16.644C8.91191 16.644 6.43142 14.0952 6.43142 10.9075C6.43142 7.71881 8.91191 5.17093 11.9948 5.17093C15.0981 5.17093 17.5686 7.71881 17.5686 10.9075C17.5686 14.0952 15.0885 16.644 11.9952 16.644ZM19.3343 8.34795C18.6401 8.34795 18.0686 7.77161 18.0686 7.05835C18.0686 6.71348 18.202 6.38273 18.4393 6.13887C18.6767 5.89501 18.9986 5.75801 19.3343 5.75801C19.67 5.75801 19.992 5.89501 20.2293 6.13887C20.4667 6.38273 20.6001 6.71348 20.6001 7.05835C20.6001 7.77161 20.0286 8.34795 19.3343 8.34795ZM11.9952 15.0501C12.5249 15.0508 13.0496 14.9441 13.5391 14.7361C14.0286 14.5281 14.4734 14.223 14.8479 13.8382C15.2225 13.4534 15.5195 12.9965 15.7219 12.4936C15.9243 11.9907 16.0282 11.4517 16.0276 10.9075C16.0282 10.3633 15.9242 9.82436 15.7218 9.32151C15.5194 8.81866 15.2223 8.36177 14.8478 7.97701C14.4732 7.59225 14.0285 7.28717 13.539 7.07924C13.0495 6.87131 12.5249 6.76461 11.9952 6.76526C9.76952 6.76526 7.97329 8.61106 7.97329 10.9075C7.97329 13.2043 9.77997 15.0501 11.9952 15.0501Z" fill="#828588"/>
</svg>
