<svg width="16" height="16" viewBox="0 0 16 16" fill="none" xmlns="http://www.w3.org/2000/svg">
<path d="M5.34798 10.152L10.152 5.34798M3.54646 7.14949L1.74495 8.95101C1.10789 9.58807 0.75 10.4521 0.75 11.353C0.75 12.254 1.10789 13.118 1.74495 13.7551C2.382 14.3921 3.24604 14.75 4.14697 14.75C5.0479 14.75 5.91193 14.3921 6.54899 13.7551L8.35051 11.9535M7.1495 3.54646L8.95101 1.74495C9.58807 1.10789 10.4521 0.75 11.353 0.75C12.254 0.75 13.118 1.10789 13.7551 1.74495C14.3921 2.382 14.75 3.24604 14.75 4.14697C14.75 5.0479 14.3921 5.91193 13.7551 6.54899L11.9535 8.35051" stroke="#626467" stroke-width="1.5" stroke-linecap="round" stroke-linejoin="round"/>
</svg>
