<svg width="36" height="36" viewBox="0 0 36 36" fill="none" xmlns="http://www.w3.org/2000/svg">
<rect width="36" height="36" rx="18" fill="#484B4E"/>
<path d="M15.598 20.402L20.402 15.598M13.7965 17.3995L11.9949 19.201C11.3579 19.8381 11 20.7021 11 21.603C11 22.504 11.3579 23.368 11.9949 24.0051C12.632 24.6421 13.496 25 14.397 25C15.2979 25 16.1619 24.6421 16.799 24.0051L18.6005 22.2035M17.3995 13.7965L19.201 11.9949C19.8381 11.3579 20.7021 11 21.603 11C22.504 11 23.368 11.3579 24.0051 11.9949C24.6421 12.632 25 13.496 25 14.397C25 15.2979 24.6421 16.1619 24.0051 16.799L22.2035 18.6005" stroke="white" stroke-width="2" stroke-linecap="round" stroke-linejoin="round"/>
</svg>
