<svg width="46" height="46" viewBox="0 0 46 46" fill="none" xmlns="http://www.w3.org/2000/svg">
<rect width="46" height="46" rx="23" fill="#EEF0F2"/>
<path d="M25.6854 18.4514L19.6318 24.4132C19.4562 24.5802 19.3161 24.78 19.2198 25.0009C19.1235 25.2218 19.0727 25.4593 19.0706 25.6997C19.0685 25.9401 19.115 26.1785 19.2074 26.401C19.2999 26.6235 19.4364 26.8256 19.609 26.9956C19.7816 27.1656 19.9868 27.3 20.2128 27.3911C20.4387 27.4821 20.6808 27.5279 20.9248 27.5258C21.1689 27.5237 21.4102 27.4738 21.6344 27.3789C21.8587 27.284 22.0616 27.1461 22.2312 26.9732L28.1267 21.0114C28.7964 20.3285 29.167 19.4138 29.1586 18.4644C29.1502 17.515 28.7636 16.6069 28.0819 15.9355C27.4002 15.2642 26.4781 14.8834 25.5141 14.8751C24.55 14.8669 23.6213 15.2319 22.9279 15.8914L17.0315 21.8523C15.9971 22.871 15.416 24.2526 15.416 25.6932C15.416 27.1338 15.9971 28.5154 17.0315 29.5341C18.0658 30.5527 19.4687 31.125 20.9315 31.125C22.3943 31.125 23.7971 30.5527 24.8315 29.5341L27.7071 26.7084" stroke="#626467" stroke-width="2" stroke-linecap="round" stroke-linejoin="round"/>
</svg>
