<svg width="36" height="36" viewBox="0 0 36 36" fill="none" xmlns="http://www.w3.org/2000/svg">
<g clip-path="url(#clip0_368_3298)">
<path d="M18.0029 35.999L18 36C17.9159 36 17.8319 35.9972 17.748 35.9961C17.8329 35.9973 17.9178 35.999 18.0029 35.999ZM18.0078 36C18.0062 36 18.0046 35.999 18.0029 35.999C18.0098 35.999 18.0166 35.999 18.0234 35.999C18.0182 35.999 18.013 36 18.0078 36ZM17.748 35.9961C17.7005 35.9954 17.653 35.9952 17.6055 35.9941C17.653 35.9952 17.7005 35.9954 17.748 35.9961ZM18.7617 35.9824C18.7097 35.9846 18.6576 35.9865 18.6055 35.9883C18.6576 35.9866 18.7097 35.9846 18.7617 35.9824ZM17.3076 35.9854C17.2636 35.9836 17.2197 35.9825 17.1758 35.9805C17.2197 35.9824 17.2636 35.9837 17.3076 35.9854ZM19.9971 35.8887C19.5892 35.9337 19.1773 35.9651 18.7617 35.9824C19.1773 35.965 19.5892 35.9338 19.9971 35.8887ZM16.8945 35.9648C16.8499 35.9621 16.8053 35.9591 16.7607 35.9561C16.8053 35.9591 16.8499 35.9621 16.8945 35.9648ZM16.4355 35.9307C16.4287 35.9301 16.4219 35.9303 16.415 35.9297C16.4219 35.9303 16.4287 35.9301 16.4355 35.9307ZM18 0C27.9411 0 36 8.05887 36 18C36 27.252 29.0195 34.8715 20.0381 35.8838C20.2498 35.8599 20.4605 35.8338 20.6699 35.8027V24.6455H24.2891L25.7363 18.8555H20.6699V15.9609C20.6699 14.4701 20.6706 13.0664 23.5654 13.0664H25.7363V8.20312C25.2645 8.14088 23.4823 8 21.6006 8C17.671 8.00012 14.88 10.3984 14.8799 14.8027V18.8555H10.5381V24.6455H14.8799V35.7275C15.3847 35.816 15.8967 35.8838 16.415 35.9297C7.21629 35.1271 0 27.407 0 18C0 8.05887 8.05887 0 18 0ZM20.0381 35.8838C20.0244 35.8853 20.0108 35.8872 19.9971 35.8887C20.0108 35.8872 20.0244 35.8853 20.0381 35.8838Z" fill="white"/>
</g>
<defs>
<clipPath id="clip0_368_3298">
<rect width="36" height="36" fill="white"/>
</clipPath>
</defs>
</svg>
