<svg width="36" height="36" viewBox="0 0 36 36" fill="none" xmlns="http://www.w3.org/2000/svg">
<path d="M18.0029 35.999L18 36C17.9159 36 17.8319 35.9972 17.748 35.9961C17.8329 35.9973 17.9178 35.999 18.0029 35.999ZM18.0078 36C18.0062 36 18.0046 35.999 18.0029 35.999C18.0098 35.999 18.0166 35.999 18.0234 35.999C18.0182 35.999 18.013 36 18.0078 36ZM18 0C27.9411 0 36 8.05887 36 18C36 27.252 29.0195 34.8715 20.0381 35.8838C20.2498 35.8599 20.4605 35.8338 20.6699 35.8027V24.6455H24.2891L25.7363 18.8555H20.6699V15.9609C20.6699 14.4701 20.6706 13.0664 23.5654 13.0664H25.7363V8.20312C25.2645 8.14088 23.4823 8 21.6006 8C17.671 8.00012 14.88 10.3984 14.8799 14.8027V18.8555H10.5381V24.6455H14.8799V35.7275C15.3847 35.816 15.8967 35.8838 16.415 35.9297C7.21629 35.1271 0 27.407 0 18C0 8.05887 8.05887 0 18 0Z" fill="#00D06F"/>
</svg>
