<svg width="36" height="36" viewBox="0 0 36 36" fill="none" xmlns="http://www.w3.org/2000/svg">
<g clip-path="url(#clip0_144_5004)">
<path d="M18 0C27.9411 0 36 8.05888 36 18C36 27.9411 27.9411 36 18 36C8.05888 36 0 27.9411 0 18C0 8.05888 8.05888 0 18 0ZM18 10C17.9984 10 11.7458 9.99974 10.1865 10.4775C9.76203 10.6095 9.37567 10.8663 9.06543 11.2207C8.75521 11.5751 8.53152 12.0153 8.41797 12.498C7.99979 14.2818 8 18 8 18C8 18.0011 7.99986 21.7185 8.41797 23.502C8.53137 23.9848 8.75431 24.4257 9.06445 24.7803C9.3747 25.1349 9.76192 25.3914 10.1865 25.5234C11.7467 26.0002 17.9984 26 18 26C18 26 24.254 26.0003 25.8135 25.5234C26.2381 25.3914 26.6253 25.1349 26.9355 24.7803C27.2457 24.4257 27.4686 23.9848 27.582 23.502C28.0001 21.7205 28 18.0011 28 18C28 18 28.0002 14.2818 27.582 12.498C27.4685 12.0153 27.2448 11.5751 26.9346 11.2207C26.6243 10.8663 26.238 10.6095 25.8135 10.4775C24.254 9.99968 18 10 18 10ZM21.1816 18L15.9541 21.377V14.623L21.1816 18Z" fill="white"/>
</g>
<defs>
<clipPath id="clip0_144_5004">
<rect width="36" height="36" fill="white"/>
</clipPath>
</defs>
</svg>
