<svg width="36" height="36" viewBox="0 0 36 36" fill="none" xmlns="http://www.w3.org/2000/svg">
<g clip-path="url(#clip0_144_5008)">
<path d="M18 0C27.9411 0 36 8.05888 36 18C36 27.9411 27.9411 36 18 36C8.05888 36 0 27.9411 0 18C0 8.05888 8.05888 0 18 0ZM17.998 8V8.00098C16.0085 8.00098 15.3211 8.00595 14.6602 8.0293L13.96 8.05859C13.031 8.10118 12.3523 8.23597 11.7637 8.4375L11.5156 8.52832C10.8459 8.78842 10.2738 9.13906 9.70703 9.70605C9.1396 10.2731 8.78919 10.8452 8.52832 11.5146C8.30739 12.0812 8.14984 12.7152 8.08203 13.5762L8.05859 13.959C8.01175 15.0066 8 15.3439 8 18C8 20.6561 8.01105 20.9923 8.05859 22.04L8.08301 22.4238C8.15152 23.2843 8.30836 23.9174 8.52832 24.4834C8.78863 25.1533 9.13892 25.726 9.70605 26.293L9.91895 26.4961C10.4173 26.9469 10.9289 27.244 11.5146 27.4717C12.1622 27.7234 12.8973 27.8927 13.959 27.9414C15.0068 27.989 15.3441 28 18 28C20.656 28 20.9923 27.989 22.04 27.9414C23.1019 27.8927 23.8378 27.7234 24.4854 27.4717C25.1551 27.2115 25.7265 26.8602 26.293 26.293L26.4961 26.0801C26.9468 25.5816 27.2434 25.0701 27.4717 24.4844V24.4834C27.7217 23.8364 27.8915 23.1014 27.9414 22.04L27.9707 21.3398C27.994 20.679 28 19.9916 28 18C28 16.0081 27.994 15.3204 27.9707 14.6592L27.9414 13.959C27.8915 12.8972 27.7217 12.1624 27.4717 11.5156V11.5146C27.2107 10.8451 26.8603 10.273 26.293 9.70605C25.7258 9.13888 25.1551 8.78824 24.4844 8.52832C23.8357 8.2766 23.1 8.10717 22.0381 8.05859C20.991 8.01099 20.6546 8.00099 18.001 8.00098V8H17.998ZM16.8994 10.2119L17.124 10.2109C17.3841 10.2105 17.6743 10.2109 18.001 10.2109C20.6098 10.2109 20.9153 10.221 21.9404 10.2676C22.8687 10.31 23.3623 10.4637 23.6846 10.5889C24.1119 10.7548 24.4108 10.9496 24.7305 11.2695C25.0501 11.5892 25.2447 11.8888 25.4111 12.3164C25.5362 12.6381 25.6902 13.1316 25.7324 14.0596C25.779 15.0846 25.79 15.3906 25.79 17.998C25.79 20.6056 25.779 20.9113 25.7324 21.9365C25.7006 22.6329 25.6059 23.0844 25.5078 23.4023L25.4111 23.6797C25.2453 24.1067 25.0503 24.4049 24.7305 24.7246C24.4505 25.0046 24.1869 25.1889 23.8389 25.3418L23.6846 25.4053C23.3631 25.5308 22.8689 25.6851 21.9404 25.7275C20.9154 25.7741 20.6097 25.7842 18.001 25.7842C15.3921 25.7842 15.0864 25.7741 14.0615 25.7275C13.1335 25.6847 12.64 25.5304 12.3174 25.4053C11.8899 25.2392 11.5902 25.0443 11.2705 24.7246C10.9507 24.4048 10.7563 24.1063 10.5898 23.6787C10.4647 23.3569 10.3098 22.8637 10.2676 21.9355C10.221 20.9103 10.2119 20.6047 10.2119 17.9951C10.2119 15.3857 10.221 15.0819 10.2676 14.0566C10.31 13.1284 10.4647 12.6347 10.5898 12.3125C10.7558 11.8854 10.9508 11.5863 11.2705 11.2666C11.5904 10.9468 11.8898 10.7523 12.3174 10.5859L12.5947 10.4883C12.9128 10.3901 13.3643 10.2947 14.0605 10.2627C14.9198 10.2239 15.274 10.2118 16.8994 10.209V10.2119ZM17.7314 12.7617C14.9601 12.902 12.7559 15.1937 12.7559 18C12.7559 20.8967 15.1045 23.2441 18.001 23.2441C20.8976 23.2441 23.2451 20.8966 23.2451 18C23.2451 15.194 21.0418 12.9022 18.2705 12.7617L18.001 12.7549L17.7314 12.7617ZM18.001 14.9668C19.6762 14.9668 21.0342 16.3246 21.0342 18C21.0342 19.6752 19.6762 21.0332 18.001 21.0332C16.3257 21.0332 14.9678 19.6753 14.9678 18C14.9678 16.3245 16.3256 14.9668 18.001 14.9668ZM22.9941 11.3838V11.4043C22.3293 11.512 21.8213 12.0868 21.8213 12.7822C21.8214 13.5539 22.4471 14.1795 23.2188 14.1797C23.9905 14.1797 24.617 13.554 24.6172 12.7822C24.6172 12.0103 23.9906 11.3838 23.2188 11.3838H22.9941Z" fill="white"/>
</g>
<defs>
<clipPath id="clip0_144_5008">
<rect width="36" height="36" fill="white"/>
</clipPath>
</defs>
</svg>
