<svg width="70" height="70" viewBox="0 0 70 70" fill="none" xmlns="http://www.w3.org/2000/svg">
<rect width="70" height="70" rx="26" fill="#FFE402"/>
<g clip-path="url(#clip0_97_1902)">
<path d="M34.9997 14.9985C24.4148 14.9985 15.832 22.8297 15.832 32.4904C15.832 39.6254 18.8625 43.0309 23.009 46.1396L23.0309 46.1504V54.5213C23.0309 54.9153 23.4904 55.1419 23.8076 54.9045L31.0776 49.5776L31.2362 49.6423C32.4561 49.8636 33.7142 49.9823 35.0052 49.9823C45.5901 49.9823 54.1729 42.1512 54.1729 32.4904C54.1729 22.8297 45.5901 14.9985 34.9997 14.9985Z" fill="#FFE402"/>
<path d="M35 14C23.8845 14 14.875 22.2251 14.875 32.3662C14.875 39.8574 18.0532 43.4356 22.413 46.6954L22.4349 46.7062V55.4981C22.4349 55.9136 22.9162 56.1511 23.2499 55.9029L30.8809 50.3115L31.045 50.3817C32.3251 50.6137 33.6489 50.7379 35 50.7379C46.1155 50.7379 55.125 42.5127 55.125 32.3716C55.125 22.2305 46.1155 14 35 14ZM28.2552 37.0185C30.23 37.0185 31.9148 35.8527 32.4235 34.0555H35.3392C34.628 37.5204 31.8929 39.7872 28.2552 39.7872C24.0267 39.7872 20.6735 36.6731 20.6735 32.3446C20.6735 28.0162 24.0267 24.9021 28.2552 24.9021C31.9312 24.9021 34.6827 27.2174 35.361 30.7417H32.4509C32.0078 28.8258 30.2628 27.633 28.2552 27.633C25.4107 27.633 23.518 29.6353 23.518 32.3446C23.518 35.054 25.6678 37.0185 28.2552 37.0185ZM47.4831 39.5066H44.8081V33.5536C44.8081 32.1827 43.9985 31.4487 42.7568 31.4487C41.3674 31.4487 40.4757 32.2853 40.4757 33.9853V39.5066H37.8008V24.9507H40.4757V30.4287C41.1157 29.468 42.1551 28.9985 43.5664 28.9985C44.7042 28.9985 45.6396 29.3655 46.3672 30.121C47.1166 30.8766 47.4885 31.9021 47.4885 33.2298V39.5066H47.4831Z" fill="#3E2723"/>
</g>
<defs>
<clipPath id="clip0_97_1902">
<rect width="40.25" height="42" fill="white" transform="translate(14.875 14)"/>
</clipPath>
</defs>
</svg>
