<svg width="230" height="37" viewBox="0 0 230 37" fill="none" xmlns="http://www.w3.org/2000/svg">
<path d="M79.8911 23.2079V28.6707H70.5528L74.2359 29.6869V36.8004H68.2649V28.6707H60.2615L63.9445 29.6869V36.8004H57.9735V28.6707H52.3242V23.2079H79.8911ZM66.6804 7.07178C73.7939 7.07178 77.6062 9.13727 77.6062 14.2484C77.6062 19.3595 73.8901 21.425 66.1092 21.425C58.3283 21.425 54.6122 19.3595 54.6122 14.2484C54.6122 9.13727 58.4245 7.07178 65.5379 7.07178M60.7094 14.2514C60.7094 15.5863 62.1075 16.0944 66.1092 16.0944C70.1109 16.0944 71.5089 15.5863 71.5089 14.2514C71.5089 12.9165 70.1109 12.4084 66.1092 12.4084C62.1075 12.4084 60.7094 12.9165 60.7094 14.2514Z" fill="#09F88E"/>
<path d="M108.412 6.31119V36.8005H102.441V26.3828L101.343 29.5667L84.0198 34.2569V9.99119L82.748 8.71942H90.7124L90.6973 24.8916L86.8159 27.6486L102.441 24.5669V7.70321L101.043 6.30518H108.412V6.31119Z" fill="#09F88E"/>
<path d="M127.025 22.5707H139.601V27.2399H112.034V22.5707H121.054V18.3796H127.025V22.5707ZM120.925 32.8681H136.55V36.7976H114.572V29.5579L112.031 28.2861H120.925V32.8681ZM114.319 13.4248L130.708 13.1723V12.0298H115.083V7.33057H136.553V20.0332H130.708V14.4741L129.74 16.6779L114.382 18.3826L114.319 13.4278V13.4248Z" fill="#09F88E"/>
<path d="M141.887 18.8873H169.454V22.5703H141.887V18.8873ZM150.78 32.8617H166.913V36.4184H144.809V29.6206L143.077 28.3489H160.56V27.1432H145.062V23.7128H166.531V31.653H150.777V32.8587L150.78 32.8617ZM144.175 13.0426L160.437 12.79V11.1394H144.938V7.32715H166.408V17.8711H160.437V13.8994L159.478 15.7034L144.244 17.4381L144.175 13.0456V13.0426Z" fill="#09F88E"/>
<path d="M193.274 11.588L198.863 6.31152V36.8008H193.274V22.4446H191.75V34.4467L186.287 36.8008V26.6387L185.027 30.0692L172.186 34.0077V18.0009L170.602 16.8585H179.429V14.0624H172.568V8.72577H184.892V21.9395H177.904V25.0002L174.73 27.4024L186.29 24.8619V8.22068L184.892 6.82264H191.753V16.9847H193.277V11.591L193.274 11.588Z" fill="#09F88E"/>
<path d="M201.596 29.1791H229.163V34.8946H201.596V29.1791ZM209.473 25.2406H202.104L213.983 9.17065L211.65 8.09131H224.442L219.034 12.0599L228.658 25.2406H221.415L215.507 16.9185L209.473 25.2406Z" fill="#09F88E"/>
<path d="M193.209 0L195.004 2.05947L197.688 1.55438L195.626 3.34928L196.134 6.03412L194.339 3.97163L191.654 4.47673L193.717 2.68483L193.209 0Z" fill="#09F88E"/>
<path d="M37.035 29.2999C36.3336 29.515 29.3567 30.7271 23.8408 27.5922L19.5724 25.7835L21.7028 26.0678C21.1249 25.5553 20.5787 24.9735 20.0811 24.3151L16.415 22.5251L19.2263 23.0301C18.972 22.5943 18.7363 22.1304 18.5212 21.6385C18.5212 21.6385 16.7424 17.5665 21.9217 15.625C21.9217 15.625 21.1192 12.9091 23.1506 11.9028C23.1506 11.9028 22.2995 14.8282 24.3701 16.1786C24.3701 16.1786 25.7075 17.1606 27.5031 17.3215C29.2988 17.4824 29.7383 19.3023 29.6916 20.116C29.6448 20.9296 29.3829 21.7208 30.1835 22.3044C30.9841 22.888 33.0808 22.484 33.0808 22.484C33.0808 22.484 34.9363 22.0631 35.3198 21.7694C35.7032 21.4739 35.6172 20.997 35.6172 20.997L29.4353 0.799722C29.4353 0.799722 29.2389 0.0608903 29.0425 0.00103556C28.8461 -0.0569487 27.3273 2.33163 27.7725 4.26943C27.7725 4.26943 27.8155 4.69963 26.8896 4.8661C26.8896 4.8661 7.99423 7.27526 6.76907 20.9764C6.76907 20.9764 5.89931 28.7238 15.9063 32.678C15.9063 32.678 10.5268 27.4407 10.9271 22.368C10.9271 22.368 16.503 41.7759 39.2814 35.5791C39.2814 35.5791 39.749 35.3228 39.7958 33.963C39.8519 32.3226 38.6268 30.1454 38.6268 30.1454C38.6268 30.1454 38.0095 29.0025 37.035 29.2999ZM28.4608 9.80225C28.3879 9.18312 29.2333 7.87754 29.2333 7.87754C30.2078 8.66875 31.0065 13.3542 31.0065 13.3542C31.0065 13.3542 30.9167 13.2794 30.8494 13.1747C30.6231 12.8193 30.1592 12.0244 29.9834 11.7307C29.7757 11.3847 29.2071 11.1808 28.9621 11.0555C28.9415 11.0442 28.9172 11.0237 28.8947 10.9993C28.8293 10.9301 28.7769 10.8478 28.7376 10.7618C28.6572 10.5878 28.5113 10.225 28.4608 9.80412V9.80225Z" fill="#09F88E"/>
<path d="M45.4622 4.64375C44.7084 4.69612 41.018 5.41251 41.018 5.41251L35.9584 8.13216L38.6893 5.82962C38.6893 5.82962 34.0356 6.58903 33.1733 6.81161C33.0461 6.84341 33.0835 6.94067 33.091 6.9893L34.1833 10.5563C34.1833 10.5563 34.3853 10.7321 34.8174 10.5993C35.2495 10.4665 45.7315 5.14129 45.7315 5.14129C45.7315 5.14129 46.216 4.59325 45.4622 4.64562V4.64375Z" fill="#09F88E"/>
<path d="M25.9396 3.41169C25.9396 3.41169 20.4536 1.32987 17.0961 2.62423C13.7386 3.91859 12.1207 4.26649 12.1207 4.26649C8.20017 5.24475 5.92007 4.03269 5.92007 4.03269C6.53359 6.90945 9.91351 7.20873 9.91351 7.20873C1.5245 10.1323 0.576172 16.4638 0.576172 16.4638C2.19599 14.5017 4.02717 14.208 4.02717 14.208C-0.791135 20.9248 5.97619 26.8486 5.97619 26.8486C0.967097 6.57277 25.9415 3.41357 25.9415 3.41357L25.9396 3.41169Z" fill="#09F88E"/>
</svg>
