<svg width="186" height="31" viewBox="0 0 186 31" fill="none" xmlns="http://www.w3.org/2000/svg">
<path d="M64.6097 18.767V23.1848H57.0578L60.0362 24.0066V29.7592H55.2075V23.1848H48.7352L51.7137 24.0066V29.7592H46.885V23.1848H42.3164V18.767H64.6097ZM53.9262 5.71777C59.6788 5.71777 62.7618 7.38813 62.7618 11.5215C62.7618 15.6548 59.7566 17.3252 53.4642 17.3252C47.1719 17.3252 44.1667 15.6548 44.1667 11.5215C44.1667 7.38813 47.2497 5.71777 53.0023 5.71777M49.0975 11.5239C49.0975 12.6034 50.2281 13.0143 53.4642 13.0143C56.7004 13.0143 57.831 12.6034 57.831 11.5239C57.831 10.4444 56.7004 10.0335 53.4642 10.0335C50.2281 10.0335 49.0975 10.4444 49.0975 11.5239Z" fill="#2F3133"/>
<path d="M87.6741 5.10252V29.7591H82.8454V21.3344L81.958 23.9092L67.9484 27.7021V8.07852L66.9199 7.05005H73.3606L73.3485 20.1284L70.2096 22.358L82.8454 19.8658V6.22824L81.7148 5.09766H87.6741V5.10252Z" fill="#2F3133"/>
<path d="M102.725 18.2519H112.895V22.0278H90.602V18.2519H97.8962V14.8625H102.725V18.2519ZM97.7916 26.5793H110.427V29.7571H92.6541V23.9024L90.5996 22.8739H97.7916V26.5793ZM92.4499 10.8556L105.703 10.6514V9.72748H93.0675V5.92725H110.43V16.1998H105.703V11.7042L104.92 13.4864L92.5009 14.865L92.4499 10.8581V10.8556Z" fill="#2F3133"/>
<path d="M114.746 15.2734H137.039V18.2519H114.746V15.2734ZM121.938 26.5745H134.985V29.4508H117.109V23.9534L115.709 22.925H129.847V21.95H117.314V19.1758H134.676V25.597H121.936V26.572L121.938 26.5745ZM116.596 10.5468L129.748 10.3426V9.00779H117.214V5.9248H134.576V14.4516H129.748V11.2398L128.972 12.6986L116.652 14.1015L116.596 10.5493V10.5468Z" fill="#2F3133"/>
<path d="M156.302 9.37009L160.822 5.10303V29.7596H156.302V18.1498H155.069V27.8558L150.651 29.7596V21.5415L149.633 24.3157L139.248 27.5008V14.5562L137.967 13.6323H145.105V11.3711H139.557V7.05542H149.523V17.7413H143.873V20.2164L141.305 22.1591L150.654 20.1046V6.64695L149.523 5.51636H155.072V13.7344H156.304V9.37252L156.302 9.37009Z" fill="#2F3133"/>
<path d="M163.031 23.5961H185.325V28.2182H163.031V23.5961ZM169.401 20.411H163.442L173.049 7.41534L171.162 6.54248H181.507L177.133 9.75189L184.916 20.411H179.059L174.281 13.681L169.401 20.411Z" fill="#2F3133"/>
<path d="M156.249 0L157.701 1.66549L159.872 1.25702L158.204 2.70855L158.615 4.87976L157.163 3.21184L154.992 3.62031L156.66 2.17121L156.249 0Z" fill="#09F88E"/>
<path d="M29.9503 24.6947C29.3831 24.8687 23.741 25.8489 19.2802 23.3137L15.8284 21.851L17.5513 22.0809C17.0839 21.6664 16.6422 21.196 16.2398 20.6636L13.2751 19.216L15.5485 19.6244C15.3428 19.2719 15.1522 18.8968 14.9783 18.499C14.9783 18.499 13.5398 15.206 17.7283 13.6359C17.7283 13.6359 17.0793 11.4395 18.7221 10.6257C18.7221 10.6257 18.0338 12.9915 19.7083 14.0836C19.7083 14.0836 20.7898 14.8777 22.2419 15.0078C23.6941 15.1379 24.0495 16.6097 24.0117 17.2677C23.9739 17.9257 23.7621 18.5655 24.4095 19.0375C25.057 19.5094 26.7526 19.1827 26.7526 19.1827C26.7526 19.1827 28.2532 18.8423 28.5632 18.6049C28.8733 18.3659 28.8038 17.9801 28.8038 17.9801L23.8045 1.64673C23.8045 1.64673 23.6457 1.04924 23.4868 1.00084C23.328 0.953946 22.0998 2.88558 22.4598 4.45267C22.4598 4.45267 22.4946 4.80057 21.7458 4.9352C21.7458 4.9352 6.46518 6.88347 5.47441 17.9635C5.47441 17.9635 4.77104 24.2288 12.8636 27.4265C12.8636 27.4265 8.51329 23.1912 8.83699 19.0889C8.83699 19.0889 13.3462 34.784 31.767 29.7726C31.767 29.7726 32.1452 29.5654 32.183 28.4657C32.2284 27.1391 31.2376 25.3784 31.2376 25.3784C31.2376 25.3784 30.7384 24.4542 29.9503 24.6947ZM23.0164 8.92703C22.9574 8.42635 23.6411 7.37053 23.6411 7.37053C24.4292 8.01038 25.0751 11.7995 25.0751 11.7995C25.0751 11.7995 25.0025 11.739 24.948 11.6543C24.765 11.3669 24.3899 10.724 24.2477 10.4866C24.0798 10.2067 23.62 10.0418 23.4218 9.9405C23.4052 9.93142 23.3855 9.91478 23.3673 9.89512C23.3144 9.83915 23.2721 9.77259 23.2403 9.70301C23.1752 9.56234 23.0573 9.26889 23.0164 8.92855V8.92703Z" fill="#09F88E"/>
<path d="M36.7653 4.75476C36.1557 4.79711 33.1713 5.37645 33.1713 5.37645L29.0796 7.57582L31.2881 5.71377C31.2881 5.71377 27.5246 6.3279 26.8273 6.5079C26.7245 6.53361 26.7547 6.61227 26.7608 6.6516L27.6441 9.53619C27.6441 9.53619 27.8075 9.67838 28.1569 9.57098C28.5063 9.46358 36.9831 5.15712 36.9831 5.15712C36.9831 5.15712 37.3749 4.71392 36.7653 4.75627V4.75476Z" fill="#09F88E"/>
<path d="M20.9761 3.75805C20.9761 3.75805 16.5396 2.07449 13.8244 3.12124C11.1092 4.16798 9.80081 4.44933 9.80081 4.44933C6.63034 5.24043 4.78643 4.26025 4.78643 4.26025C5.28258 6.58668 8.01591 6.8287 8.01591 6.8287C1.23175 9.19294 0.464844 14.3132 0.464844 14.3132C1.77478 12.7265 3.25565 12.489 3.25565 12.489C-0.640891 17.9208 4.83181 22.7113 4.83181 22.7113C0.780983 6.3144 20.9777 3.75957 20.9777 3.75957L20.9761 3.75805Z" fill="#09F88E"/>
</svg>
