<svg width="24" height="24" viewBox="0 0 24 24" fill="none" xmlns="http://www.w3.org/2000/svg">
<path d="M2 7V4.5C2 3.67157 2.67157 3 3.5 3H5.63127C6.45969 3 7.13126 3.67157 7.13126 4.5V7M2 7H7.13126M2 7V17M7.13126 7V17M2 17V19.5C2 20.3284 2.67157 21 3.5 21H5.63126C6.45969 21 7.13126 20.3284 7.13126 19.5V17M2 17H7.13126" stroke="#484B4E" stroke-width="2"/>
<path d="M7.13281 7V4.5C7.13281 3.67157 7.80439 3 8.63281 3H10.7641C11.5925 3 12.2641 3.67157 12.2641 4.5V7M7.13281 7H12.2641M7.13281 7V17M12.2641 7V17M7.13281 17V19.5C7.13281 20.3284 7.80438 21 8.63281 21H10.7641C11.5925 21 12.2641 20.3284 12.2641 19.5V17M7.13281 17H12.2641" stroke="#484B4E" stroke-width="2"/>
<path d="M13.7031 7.84393L13.0518 5.43463C12.836 4.63626 13.314 3.81564 14.1194 3.60172L16.1915 3.05137C16.9969 2.83744 17.8248 3.31123 18.0406 4.1096L18.6918 6.5189M13.7031 7.84393L18.6918 6.5189M13.7031 7.84393L16.3082 17.4811M18.6918 6.5189L21.2969 16.1561M16.3082 17.4811L16.9594 19.8904C17.1752 20.6888 18.0031 21.1626 18.8085 20.9486L20.8806 20.3983C21.686 20.1844 22.164 19.3637 21.9482 18.5654L21.2969 16.1561M16.3082 17.4811L21.2969 16.1561" stroke="#484B4E" stroke-width="2"/>
</svg>
