<svg width="24" height="24" viewBox="0 0 24 24" fill="none" xmlns="http://www.w3.org/2000/svg">
<path d="M11.2613 3.21801C11.5635 2.594 12.4365 2.594 12.7387 3.21801L15.0362 7.96285C15.1562 8.21065 15.3881 8.3824 15.6564 8.42213L20.7938 9.183C21.4695 9.28307 21.7392 10.1293 21.2503 10.6151L17.5329 14.3084C17.3387 14.5013 17.2501 14.7792 17.296 15.0515L18.1735 20.2666C18.289 20.9525 17.5827 21.4755 16.9784 21.1517L12.3833 18.6895C12.1433 18.5609 11.8567 18.5609 11.6167 18.6895L7.02164 21.1517C6.41733 21.4755 5.71104 20.9525 5.82645 20.2666L6.70403 15.0515C6.74986 14.7792 6.66127 14.5013 6.46712 14.3084L2.74966 10.6151C2.26076 10.1293 2.53054 9.28307 3.20618 9.183L8.34359 8.42213C8.61189 8.3824 8.84382 8.21065 8.96381 7.96285L11.2613 3.21801Z" stroke="#08A75D" stroke-width="2"/>
</svg>
