<svg width="12" height="14" viewBox="0 0 12 14" fill="none" xmlns="http://www.w3.org/2000/svg">
<path d="M8.33353 3.39104L3.86317 7.7936C3.73351 7.91693 3.63009 8.06445 3.55895 8.22757C3.4878 8.39068 3.45035 8.56611 3.44878 8.74363C3.44722 8.92115 3.48156 9.0972 3.54982 9.26151C3.61808 9.42581 3.71888 9.57508 3.84634 9.70061C3.97381 9.82614 4.12538 9.92542 4.29221 9.99264C4.45905 10.0599 4.63781 10.0937 4.81806 10.0921C4.99831 10.0906 5.17645 10.0537 5.34207 9.98365C5.5077 9.91359 5.6575 9.81173 5.78272 9.68404L10.1363 5.28148C10.6309 4.77718 10.9046 4.10174 10.8984 3.40066C10.8922 2.69957 10.6067 2.02893 10.1033 1.53317C9.59987 1.0374 8.91889 0.756193 8.20701 0.750101C7.49513 0.744009 6.8093 1.01352 6.29723 1.50059L1.94294 5.90249C1.17911 6.65473 0.75 7.67499 0.75 8.73882C0.75 9.80265 1.17911 10.8229 1.94294 11.5752C2.70676 12.3274 3.74273 12.75 4.82295 12.75C5.90316 12.75 6.93913 12.3274 7.70296 11.5752L9.82648 9.48851" stroke="#484B4E" stroke-width="1.5" stroke-linecap="round" stroke-linejoin="round"/>
</svg>
