<svg width="32" height="30" viewBox="0 0 32 30" fill="none" xmlns="http://www.w3.org/2000/svg">
<path d="M14.7559 0.758935C15.2648 -0.252978 16.7352 -0.252978 17.2441 0.758934L21.1136 8.45327C21.3157 8.8551 21.7063 9.13362 22.1582 9.19806L30.8106 10.4319C31.9486 10.5942 32.4029 11.9665 31.5795 12.7542L25.3185 18.7434C24.9916 19.0562 24.8423 19.5068 24.9195 19.9485L26.3976 28.4053C26.5919 29.5175 25.4024 30.3657 24.3846 29.8406L16.6456 25.8478C16.2414 25.6393 15.7586 25.6393 15.3544 25.8478L7.6154 29.8406C6.59761 30.3657 5.40806 29.5175 5.60244 28.4053L7.08046 19.9485C7.15765 19.5068 7.00845 19.0562 6.68147 18.7434L0.420476 12.7542C-0.402933 11.9665 0.0514341 10.5942 1.18936 10.4319L9.84184 9.19806C10.2937 9.13362 10.6843 8.8551 10.8864 8.45327L14.7559 0.758935Z" fill="#DBDEE0"/>
</svg>
